<?xml version="1.0" encoding="utf-8"?>
<!-- Generator: Adobe Illustrator 24.0.0, SVG Export Plug-In . SVG Version: 6.00 Build 0)  -->
<svg version="1.1"
	 id="图层_1" xmlns:ev="http://www.w3.org/2001/xml-events" xmlns:v="http://schemas.microsoft.com/visio/2003/SVGExtensions/"
	 xmlns="http://www.w3.org/2000/svg" xmlns:xlink="http://www.w3.org/1999/xlink" x="0px" y="0px" viewBox="0 0 433.1 49.9"
	 style="enable-background:new 0 0 433.1 49.9;" xml:space="preserve">
<style type="text/css">
	.st0{fill-rule:evenodd;clip-rule:evenodd;fill:#4E6361;}
	.st1{fill:#FFD965;}
	.st2{font-family:'DengXian';}
	.st3{font-size:22.3586px;}
	.st4{fill:#00B0F0;}
	.st5{font-family:'Arial-BoldMT';}
	.st6{fill:url(#SVGID_1_);}
	.st7{fill:#AEC4CC;}
	.st8{fill:#66808A;}
	.st9{fill:#80939B;}
	.st10{fill:#EDF7F8;}
	.st11{fill:#171818;}
	.st12{fill:none;stroke:#3E3A39;stroke-width:0.15;stroke-miterlimit:10;}
	.st13{fill:none;}
</style>
<v:documentProperties  v:langID="2052"></v:documentProperties>
<title>页-1</title>
<v:pageProperties  v:drawingScale="1" v:drawingUnits="19" v:pageScale="1" v:shadowOffsetX="8.99997" v:shadowOffsetY="-8.99997">
	</v:pageProperties>
<title>工作表.4</title>
<desc>ZJECMS无人机成果应用系统</desc>
<v:userDefs></v:userDefs>
<v:textBlock  v:margins="rect(3.99996,3.99996,3.99996,3.99996)"></v:textBlock>
<v:textRect  cx="216.186" cy="25.3123" height="49.1249" width="432.39"></v:textRect>
<rect y="-0.1" class="st0" width="433" height="50"/>
<text transform="matrix(0.9848 0 0 1 112.5605 30.2765)" class="st1 st2 st3">WebGIS</text>
<text transform="matrix(0.9848 0 0 1 199.4727 30.2765)" class="st1 st2 st3">综合应用系统</text>
<text transform="matrix(0.9848 0 0 1 316.0313 31.7179)" class="st4 st5 st3">  </text>
<radialGradient id="SVGID_1_" cx="-1000.4359" cy="-2508.7068" r="0.7478" fx="-1000.8932" fy="-2508.4788" gradientTransform="matrix(0.8635 -0.5138 -0.3261 -0.5651 96.7506 -1924.7277)" gradientUnits="userSpaceOnUse">
	<stop  offset="0.2473" style="stop-color:#FFFFFF"/>
	<stop  offset="0.2584" style="stop-color:#FBFBFB"/>
	<stop  offset="0.3955" style="stop-color:#C9C9C9"/>
	<stop  offset="0.4996" style="stop-color:#AAAAAB"/>
	<stop  offset="0.5576" style="stop-color:#9E9E9F"/>
	<stop  offset="0.6318" style="stop-color:#9B9B9C"/>
	<stop  offset="0.6932" style="stop-color:#929191"/>
	<stop  offset="0.7499" style="stop-color:#838080"/>
	<stop  offset="0.8038" style="stop-color:#6D6968"/>
	<stop  offset="0.8558" style="stop-color:#514A49"/>
	<stop  offset="0.9057" style="stop-color:#2F2523"/>
	<stop  offset="0.9217" style="stop-color:#231815"/>
</radialGradient>
<path class="st6" d="M51.5,7.3c0.1,0.5-0.3,1-0.8,1c-1.1,0.2-1.3-0.2-1.3-0.8c0-0.5,0.3-0.9,1-1C50.9,6.5,51.4,6.7,51.5,7.3z"/>
<path class="st7" d="M49.7,8.7C49.4,9,49.2,9.3,49.2,10c0,0.5,0.1,1.3,0.4,2.5c0.3,1.1,0.7,2.3,0.7,2.7c0.2,1,0.4,2.1,0.2,3.8
	c-0.1,1.2-1.6,3.5-2.1,5.4s-0.1,6.1,0.1,6.9c-0.3,0.3-1.8,1.5-2.5,1.9c-0.8,0.4-3,1.2-3,1.6s2.2,1.1,3.9,1.1s2.4,0,2.4,0
	s-0.7,0.6-1.5,1.1c-1,0.6-2.3,1-3,1.5c-0.7,0.4,1.4,1.1,2.9,1.2c1.5,0.2,4.9,0.1,6.7-0.5c1.3-0.5,1.9-0.8,2.4-0.9
	c0.2,0,3.2,0.3,4,0.4c0.9,0.1,7.3-1.3,8-1.5c0.7-0.3,4.2-1.3,4.8-1.5c0.6-0.2,1-0.2,1.7-0.2c0.8,0.1,1.7,1.1,3,2.4
	c1.2,1.2,2.9,2.3,3.8,1.9c0.4-0.1,0.5-0.2,0.7-1.1c0.2-1.2-0.3-2.4-1.3-3.5c-0.8-0.8-1.7-0.8-2.2-1s0.8-1.5,0.8-1.5s0.6-0.6,0.6-1
	c0-0.3-0.3-0.8-0.9-0.9c-0.6,0-2.2,0-2.9,0.2c-0.5,0.1-1.6,0.4-1.6,0.4s-2.5-1.5-4.5-2.4s-3-1.3-4.2-1.4c-1.2-0.2-2.6-0.1-3.1-0.1
	c-0.4,0-2.6-0.2-4-2.1s-1.2-1.6-1.7-3c-0.6-1.7-0.3-4-0.3-4s0.5-3.9,0.5-4.2s-0.1-0.9-0.2-1.6c-0.2-1.2-1.6-2.3-2.2-2.8
	c-0.9-0.8-2-1.4-2.7-1.5c-0.2-0.1-1.1-0.2-1.6-0.1C50.7,8,50,8.4,49.7,8.7z"/>
<path class="st8" d="M48.7,31.4c0,0,0.3,1.1,0.8,1.8c0.5,0.6,1.1,1.4,1.1,1.4l-1.2,1c0,0-2.6,0.1-2.9,0c-0.4,0-0.8,0-1.4-0.2
	c-0.6-0.1-1.6-0.5-1.9-0.6c-0.3-0.2-0.1-0.5,0.2-0.6c0.3-0.2,1.5-0.6,1.8-0.8s1.4-0.7,1.7-0.9s1.3-1,1.5-1.2s0.3-0.2,0.3-0.2
	L48.7,31.4z"/>
<g>
	<g>
		<g>
			<ellipse class="st9" cx="50.3" cy="9.3" rx="0.2" ry="0.2"/>
		</g>
		<g>
			<ellipse class="st9" cx="51" cy="9.2" rx="0.2" ry="0.2"/>
		</g>
		<ellipse class="st9" cx="51" cy="9.9" rx="0.2" ry="0.2"/>
		<ellipse class="st9" cx="50.4" cy="9.9" rx="0.2" ry="0.2"/>
	</g>
</g>
<ellipse class="st10" cx="53" cy="9.7" rx="0.7" ry="0.7"/>
<path class="st11" d="M53,9.6c-0.1,0-0.1,0-0.1-0.1s0-0.2,0.1-0.2c0,0,0,0-0.1,0h-0.1c-0.2,0-0.3,0.1-0.3,0.3s0.1,0.3,0.3,0.3
	s0.3-0.1,0.3-0.3l0,0H53z"/>
<ellipse class="st12" cx="52.9" cy="9.5" rx="0.3" ry="0.3"/>
<v:paragraph  v:horizAlign="1"></v:paragraph>
<v:tabList></v:tabList>
<g id="shape2-5" transform="translate(35.6362,-10.9599)">
	<title>工作表.2</title>
	<rect x="0" y="20.1" class="st13" width="32.6" height="30"/>
	<rect x="0" y="20.1" class="st13" width="32.6" height="30"/>
</g>
</svg>
